# Alias OBJ Model File
# Exported from SketchUp, (c) 2000-2012 Trimble Navigation Limited
# File units = meters

mtllib Cockpit.mtl

g Mesh1 Model

usemtl FrontColor
v 0.1875 0.0375 -0.1875
vt -2.66454e-15 -9.03378
vn 0.276172 0.920575 -0.276172
v 0.125 0.075 -0.125
vt -1.33227e-15 -5.25369
v 0.25 0.075 -0
vt -6.95971 -5.25369
v 0.5 0 -0
vt -13.9194 -12.8139
v 0.375 0 -0.125
vt -6.95971 -12.8139
f 1/1/1 2/2/1 3/3/1 4/4/1 5/5/1 

v 0.179289 0 -0.179289
vt -9.98242 0
vn -0.707107 -7.05271e-17 -0.707107
v 0 0 -0
vt 0 0
v 0 0.15 -0
vt 0 5.90551
v 0.0625 0.075 -0.0625
vt -3.47986 2.95276
vt -6.95971 2.95276
vt -10.4396 1.47638
f 6/6/2 7/7/2 8/8/2 9/9/2 2/10/2 1/11/2 

v 0.179289 0 0.179289
vt -7.05863 -7.05863
vn 0 -1 -0
vt -7.05863 7.05863
vt -14.7638 4.92126
vt -19.685 0
v 0.375 0 0.125
vt -14.7638 -4.92126
f 10/12/3 7/7/3 6/13/3 5/14/3 4/15/3 11/16/3 

vn -0.707107 0 0.707107
vt 9.98242 0
v 0.1875 0.0375 0.1875
vt 10.4396 1.47638
v 0.125 0.075 0.125
vt 6.95971 2.95276
v 0.0625 0.075 0.0625
vt 3.47986 2.95276
f 7/7/4 10/17/4 12/18/4 13/19/4 14/20/4 8/8/4 

vt 5.14009 3.79005
vn 0.258093 -0.260225 0.930414
vt 4.915 2.26099
vt 12.9111 2.26099
f 12/21/5 10/22/5 11/23/5

vt 6.95971 -12.8139
vn 0.276172 0.920575 0.276172
vt 13.9194 -12.8139
vt 6.95971 -5.25369
vt 0 -5.25369
vt 0 -9.03378
f 11/24/6 4/25/6 3/26/6 13/27/6 12/28/6 

vt 2.46063 -2.46063
vn 0 1 -0
vt 4.92126 -4.92126
vt 9.84252 0
vt 4.92126 4.92126
vt 2.46063 2.46063
f 14/29/7 13/30/7 3/31/7 2/32/7 9/33/7 

vt 2.46063 0.693113
vn 0.768221 0.640184 3.82664e-33
vt 2.73691e-48 4.53674
vt -2.46063 0.693113
f 9/34/8 8/35/8 14/36/8

vt -4.915 2.26099
vn 0.258093 -0.260225 -0.930414
vt -5.14009 3.79005
vt -12.9111 2.26099
f 6/37/9 1/38/9 5/39/9

